<svg enable-background="new 0 0 64 64" height="64" viewBox="0 0 64 64" width="64" xmlns="http://www.w3.org/2000/svg"><path d="m15 2c-5.523 0-10 4.477-10 10s4.477 10 10 10 10-4.477 10-10-4.477-10-10-10zm-5 11c-.553 0-1-.447-1-1s.447-1 1-1 1 .447 1 1-.447 1-1 1zm5 5c-.553 0-1-.447-1-1s.447-1 1-1 1 .447 1 1-.447 1-1 1zm0-10c-.553 0-1-.447-1-1s.447-1 1-1 1 .447 1 1-.447 1-1 1zm5 5c-.553 0-1-.447-1-1s.447-1 1-1 1 .447 1 1-.447 1-1 1z" fill="#506c7f"/><path d="m37 2c-5.523 0-10 4.477-10 10s4.477 10 10 10 10-4.477 10-10-4.477-10-10-10zm-5 11c-.553 0-1-.447-1-1s.447-1 1-1 1 .447 1 1-.447 1-1 1zm5 5c-.553 0-1-.447-1-1s.447-1 1-1 1 .447 1 1-.447 1-1 1zm0-10c-.553 0-1-.447-1-1s.447-1 1-1 1 .447 1 1-.447 1-1 1zm5 5c-.553 0-1-.447-1-1s.447-1 1-1 1 .447 1 1-.447 1-1 1z" fill="#506c7f"/><path d="m50 60c0 1.104-.896 2-2 2h-44c-1.104 0-2-.896-2-2v-34c0-1.104.896-2 2-2h44c1.104 0 2 .896 2 2z" fill="#45aab8"/><path d="m52 51.279 6 2v-20.558l-6 1.999z" fill="#f9ebb2"/><path d="m60 32.055v21.89l2 .667v-23.224z" fill="#f9ebb2"/><g fill="#394240"><path d="m39 12c0 1.656 1.344 3 3 3s3-1.344 3-3-1.344-3-3-3-3 1.344-3 3zm3-1c.553 0 1 .447 1 1s-.447 1-1 1-1-.447-1-1 .447-1 1-1z"/><path d="m37 10c1.656 0 3-1.344 3-3s-1.344-3-3-3-3 1.344-3 3 1.344 3 3 3zm0-4c.553 0 1 .447 1 1s-.447 1-1 1-1-.447-1-1 .447-1 1-1z"/><path d="m37 14c-1.656 0-3 1.344-3 3s1.344 3 3 3 3-1.344 3-3-1.344-3-3-3zm0 4c-.553 0-1-.447-1-1s.447-1 1-1 1 .447 1 1-.447 1-1 1z"/><path d="m35 12c0-1.656-1.344-3-3-3s-3 1.344-3 3 1.344 3 3 3 3-1.344 3-3zm-4 0c0-.553.447-1 1-1s1 .447 1 1-.447 1-1 1-1-.447-1-1z"/><path d="m23 12c0-1.656-1.344-3-3-3s-3 1.344-3 3 1.344 3 3 3 3-1.344 3-3zm-3 1c-.553 0-1-.447-1-1s.447-1 1-1 1 .447 1 1-.447 1-1 1z"/><path d="m15 10c1.656 0 3-1.344 3-3s-1.344-3-3-3-3 1.344-3 3 1.344 3 3 3zm0-4c.553 0 1 .447 1 1s-.447 1-1 1-1-.447-1-1 .447-1 1-1z"/><path d="m15 14c-1.656 0-3 1.344-3 3s1.344 3 3 3 3-1.344 3-3-1.344-3-3-3zm0 4c-.553 0-1-.447-1-1s.447-1 1-1 1 .447 1 1-.447 1-1 1z"/><path d="m13 12c0-1.656-1.344-3-3-3s-3 1.344-3 3 1.344 3 3 3 3-1.344 3-3zm-3 1c-.553 0-1-.447-1-1s.447-1 1-1 1 .447 1 1-.447 1-1 1z"/><path d="m63.585 29.188c-.262-.188-.598-.241-.901-.137l-10.684 3.561v-6.612c0-2.211-1.789-4-4-4h-4.372c3.236-2.148 5.372-5.823 5.372-10 0-6.629-5.374-12-12-12-4.923 0-9.149 2.968-11 7.211-1.851-4.243-6.077-7.211-11-7.211-6.626 0-12 5.371-12 12 0 4.177 2.136 7.852 5.372 10h-4.372c-2.211 0-4 1.789-4 4v34c0 2.211 1.789 4 4 4h44c2.211 0 4-1.789 4-4v-6.613l10.684 3.562c.103.034.21.051.316.051.207 0 .412-.064.585-.188.261-.189.415-.491.415-.812v-26c0-.321-.154-.623-.415-.812zm-26.585-27.188c5.523 0 10 4.477 10 10s-4.477 10-10 10-10-4.477-10-10 4.477-10 10-10zm-6.628 20h-8.744c1.916-1.272 3.443-3.08 4.372-5.211.929 2.131 2.456 3.939 4.372 5.211zm-25.372-10c0-5.523 4.477-10 10-10s10 4.477 10 10-4.477 10-10 10-10-4.477-10-10zm45 48c0 1.104-.896 2-2 2h-44c-1.104 0-2-.896-2-2v-34c0-1.104.896-2 2-2h44c1.104 0 2 .896 2 2zm8-6.721-6-2v-16.559l6-1.999zm4 1.333-2-.667v-21.89l2-.667z"/><path d="m36 36h-20c-.553 0-1 .448-1 1v12c0 .552.447 1 1 1h20c.553 0 1-.448 1-1v-12c0-.552-.447-1-1-1zm-1 12h-18v-10h18z"/></g><path d="m62 54.612-2-.667v-21.89l2-.667z" opacity=".15"/><path d="m17 38h18v10h-18z" fill="#fff" opacity=".2"/></svg>